<svg width="24" height="24" viewBox="0 0 24 24" fill="none" xmlns="http://www.w3.org/2000/svg">
  <path fill-rule="evenodd" clip-rule="evenodd" d="M12 0.75C5.64625 0.75 0.5 5.89625 0.5 12.25C0.5 17.3387 3.79187 21.6369 8.36312 23.1606C8.93812 23.2744 9.15375 22.92 9.15375 22.6162C9.15375 22.3419 9.13938 21.4356 9.13938 20.4825C6.25 21.0575 5.5025 19.8294 5.2775 19.1825C5.15375 18.8644 4.6 17.8675 4.1 17.5931C3.6975 17.3775 3.1225 16.8025 4.08563 16.7887C5 16.775 5.64625 17.6675 5.8625 18C6.89375 19.7919 8.53125 19.2306 9.19063 18.9269C9.30313 18.1775 9.58438 17.6675 9.89375 17.3775C7.33125 17.0875 4.65 16.0906 4.65 11.6675C4.65 10.3975 5.1 9.35625 5.89063 8.52812C5.76563 8.23812 5.35938 7.03812 5.99375 5.40625C5.99375 5.40625 6.97188 5.10312 9.15375 6.63437C10.0788 6.37187 11.0538 6.24062 12.0288 6.24062C13.0038 6.24062 13.9788 6.37187 14.9038 6.63437C17.0856 5.08875 18.0638 5.40625 18.0638 5.40625C18.6981 7.03812 18.2919 8.23812 18.1669 8.52812C18.9575 9.35625 19.4075 10.3831 19.4075 11.6675C19.4075 16.1044 16.7119 17.0875 14.1494 17.3775C14.5413 17.7394 14.8794 18.4294 14.8794 19.5144C14.8794 21.0575 14.865 22.2281 14.865 22.6162C14.865 22.92 15.0806 23.2887 15.6556 23.1606C20.2125 21.6369 23.5044 17.3244 23.5044 12.25C23.5044 5.89625 18.3581 0.75 12.0044 0.75H12Z" fill="#333333"/>
</svg> 